<svg width="16" height="20" viewBox="0 0 16 20" fill="none" xmlns="http://www.w3.org/2000/svg">
<path fill-rule="evenodd" clip-rule="evenodd" d="M12.9053 18.1162C12.895 18.3621 12.6762 18.5714 12.4286 18.5714H3.28572C3.03818 18.5714 2.81925 18.3615 2.80903 18.1162L2.2851 5.54169C2.26867 5.14755 1.93584 4.84134 1.54169 4.85776C1.14755 4.87419 0.841339 5.20702 0.857762 5.60116L1.3817 18.1756C1.42381 19.1863 2.27246 20 3.28572 20H12.4286C13.4412 20 14.2904 19.1876 14.3326 18.1756L14.8565 5.60116C14.8729 5.20702 14.5667 4.87419 14.1726 4.85776C13.7784 4.84134 13.4456 5.14755 13.4292 5.54169L12.9053 18.1162ZM7.28571 16.4286C7.28571 16.7442 7.54155 17 7.85714 17C8.17273 17 8.42857 16.7442 8.42857 16.4286V6.71429C8.42857 6.39869 8.17273 6.14286 7.85714 6.14286C7.54155 6.14286 7.28571 6.39869 7.28571 6.71429V16.4286ZM4.42882 16.4454C4.4381 16.7608 4.70135 17.009 5.0168 16.9998C5.33225 16.9905 5.58046 16.7272 5.57118 16.4118L5.28547 6.69749C5.27619 6.38203 5.01294 6.13383 4.69749 6.14311C4.38203 6.15238 4.13383 6.41563 4.1431 6.73109L4.42882 16.4454ZM10.1431 16.4118C10.1338 16.7272 10.382 16.9905 10.6975 16.9998C11.0129 17.009 11.2762 16.7608 11.2855 16.4454L11.5712 6.73109C11.5805 6.41563 11.3323 6.15238 11.0168 6.14311C10.7013 6.13383 10.4381 6.38203 10.4288 6.69749L10.1431 16.4118ZM11.3755 2.42857L11.1037 1.47705C10.8647 0.640524 10.0152 0 9.14529 0H6.569C5.69918 0 4.84957 0.640754 4.61063 1.47705L4.33877 2.42857H0.714286C0.319797 2.42857 0 2.74837 0 3.14286C0 3.53735 0.319797 3.85714 0.714286 3.85714H15C15.3945 3.85714 15.7143 3.53735 15.7143 3.14286C15.7143 2.74837 15.3945 2.42857 15 2.42857H11.3755ZM9.14529 1.42857H6.569C6.33696 1.42857 6.04794 1.64655 5.98423 1.86951L5.8245 2.42857H9.88978L9.73005 1.86951C9.6663 1.64636 9.37747 1.42857 9.14529 1.42857Z" fill="#E14A4A"/>
</svg>
