<svg width="14" height="14" viewBox="0 0 14 14" fill="none" xmlns="http://www.w3.org/2000/svg">
<path d="M0.244407 13.6991C0.59356 14.0475 1.12893 14.0475 1.47808 13.6991L6.97142 8.21859L12.4648 13.6991C12.7906 14.0707 13.326 14.0939 13.6984 13.792C14.0709 13.4901 14.0941 12.9328 13.7915 12.5612C13.7683 12.538 13.745 12.4916 13.6984 12.4683L8.20509 6.98779L13.6984 1.50724C14.0476 1.18213 14.0709 0.624784 13.745 0.276444C13.4191 -0.0718954 12.8605 -0.0951182 12.5113 0.229999C12.488 0.253221 12.488 0.253222 12.4648 0.276444L6.97142 5.75699L1.47808 0.276444C1.12893 -0.0486728 0.570283 -0.0254504 0.244407 0.322889C-0.0581921 0.648006 -0.0581921 1.18213 0.244407 1.50724L5.73774 6.98779L0.244407 12.4683C-0.081469 12.8167 -0.081469 13.3508 0.244407 13.6991Z" fill="#0C3C60"/>
</svg>
