<svg width="24" height="32" viewBox="0 0 24 32" fill="none" xmlns="http://www.w3.org/2000/svg">
<path d="M15.8484 3.80859H8.59004C8.312 3.80859 8.04859 3.93047 7.85103 4.13614L0.285359 12.4161C0.102437 12.6141 0 12.8807 0 13.1549V27.3992C0 29.9205 1.96825 32 4.39014 32H15.8484C18.2703 32 20.2678 29.9205 20.2678 27.3992V8.37893C20.2678 5.85763 18.2703 3.80859 15.8484 3.80859ZM7.53641 7.54104V12.1114H3.41699L7.53641 7.54104ZM18.2191 27.3839C18.2191 28.7322 17.1435 29.8519 15.8484 29.8519H4.39014C3.09505 29.8519 2.04873 28.7322 2.04873 27.3839V14.2442H8.59736C9.16076 14.2442 9.58514 13.7415 9.58514 13.1473V5.94142H15.8484C17.1435 5.94142 18.2191 7.0383 18.2191 8.37893V27.3839Z" fill="#4DA7E6"/>
<path d="M19.6096 0H10.0977V2.13283H19.6096C20.9047 2.13283 21.951 3.25256 21.951 4.60081V28.2599H23.9998V4.60081C23.9998 2.07189 22.0315 0 19.6096 0Z" fill="#4DA7E6"/>
</svg>
