<svg width="24" height="33" viewBox="0 0 24 33" fill="none" xmlns="http://www.w3.org/2000/svg">
<path d="M6.09816 12.2527C7.01619 12.2527 7.70472 12.0535 8.13095 11.6552C8.58996 11.2568 8.78668 10.6261 8.78668 9.79626C8.78668 8.93319 8.55718 8.30248 8.13095 7.90414C7.70472 7.5058 7.01619 7.27344 6.06537 7.27344H3.86865V14.178H5.2457V12.2527H6.09816ZM5.2457 8.60124H6.03259C6.4916 8.60124 6.81947 8.70082 7.04898 8.8668C7.27849 9.03277 7.37685 9.33153 7.37685 9.72987C7.37685 10.1282 7.27849 10.427 7.11455 10.6261C6.95062 10.8253 6.62275 10.9249 6.16373 10.9249H5.2457V8.60124Z" fill="#4DA7E6"/>
<path d="M14.197 13.2095C14.7872 12.5788 15.0495 11.7489 15.0495 10.6535C15.0495 9.59122 14.7544 8.72815 14.1643 8.13064C13.5741 7.53313 12.7216 7.23438 11.6069 7.23438H9.41016V14.1389H11.5413C12.7216 14.1721 13.6069 13.8402 14.197 13.2095ZM13.1479 12.28C12.82 12.6452 12.3282 12.8111 11.7052 12.8111H10.82V8.59537H11.6069C12.2954 8.59537 12.82 8.79454 13.1806 9.15969C13.5085 9.52483 13.7052 10.056 13.7052 10.7199C13.6725 11.3838 13.4757 11.9149 13.1479 12.28Z" fill="#4DA7E6"/>
<path d="M20.065 8.63443V7.27344H15.8027V14.178H17.1798V11.456H19.9011V10.1282H17.1798V8.63443H20.065Z" fill="#4DA7E6"/>
<path d="M21.8689 0H2.06557C0.918033 0 0 0.929461 0 2.09129V26.5892C0 27.751 0.918033 28.6805 2.06557 28.6805H6.62295L6 28.0498L5.37705 27.4191H2.09836C1.63934 27.4191 1.27869 27.0539 1.27869 26.5892V2.09129C1.27869 1.62656 1.63934 1.26141 2.09836 1.26141H21.9344C22.3934 1.26141 22.7541 1.62656 22.7541 2.09129V26.5892C22.7541 27.0539 22.3934 27.4191 21.9344 27.4191H19.1148L18.4918 28.0498L17.8689 28.6805H21.9344C23.082 28.6805 24 27.751 24 26.5892V2.09129C23.9672 0.929461 23.0164 0 21.8689 0Z" fill="#4DA7E6"/>
<path d="M19.2135 24.7658L14.9184 24.7326V17.5625H9.01676V24.633L4.72168 24.5667L12.0659 32.0023L19.2135 24.7658Z" fill="#4DA7E6"/>
</svg>
