<svg width="25" height="25" viewBox="0 0 25 25" fill="none" xmlns="http://www.w3.org/2000/svg">
<path d="M12.5 0C5.60744 0 0 5.60744 0 12.5C0 19.3926 5.60744 25 12.5 25C19.3926 25 25 19.3923 25 12.5C25 5.60772 19.3923 0 12.5 0ZM12.5 23.286C6.55272 23.286 1.71396 18.4473 1.71396 12.4997C1.71396 6.55244 6.55272 1.71369 12.5 1.71369C18.4476 1.71369 23.2863 6.55244 23.2863 12.4997C23.286 18.4476 18.4476 23.286 12.5 23.286Z" fill="#FAFAFA"/>
<path d="M12.7342 13.2117C14.8728 13.2117 16.6129 11.4716 16.6129 9.33297C16.6129 7.19351 14.8728 5.45312 12.7342 5.45312C10.5953 5.45312 8.85547 7.19379 8.85547 9.33297C8.85519 11.4716 10.5953 13.2117 12.7342 13.2117ZM12.7342 7.16653C13.9281 7.16653 14.8993 8.13823 14.8993 9.33269C14.8993 10.5266 13.9281 11.4977 12.7342 11.4977C11.5403 11.4977 10.5692 10.5263 10.5692 9.33269C10.5692 8.13851 11.5403 7.16653 12.7342 7.16653Z" fill="#FAFAFA"/>
<path d="M20.1372 16.4992C19.3465 14.4609 17.8264 13.3549 15.6188 13.2128C15.4147 13.1997 15.2155 13.259 15.0528 13.3799C14.3651 13.8905 13.5633 14.1606 12.734 14.1606C11.9055 14.1606 11.1024 13.8903 10.4113 13.3791C10.2483 13.2587 10.0461 13.1994 9.84616 13.2128C7.62688 13.3568 6.10314 14.4743 5.31722 16.5345C5.14868 16.9767 5.37006 17.4717 5.81224 17.6405C5.91264 17.6789 6.01582 17.697 6.1176 17.697C6.46273 17.697 6.78812 17.487 6.91827 17.1455C7.43137 15.8006 8.28571 15.1142 9.66817 14.9493C10.5926 15.5555 11.6458 15.8743 12.734 15.8743C13.8233 15.8743 14.8757 15.5555 15.7976 14.9493C17.172 15.1122 18.0238 15.7905 18.5392 17.1191C18.7102 17.5604 19.2061 17.779 19.648 17.608C20.0893 17.4367 20.3082 16.9405 20.1372 16.4992Z" fill="#FAFAFA"/>
</svg>
