<svg width="20" height="20" viewBox="0 0 20 20" fill="none" xmlns="http://www.w3.org/2000/svg">
<circle cx="10" cy="10" r="10" fill="#D8E0E5"/>
<path d="M8.88574 11.9443C8.88574 11.3063 8.96322 10.7982 9.11816 10.4199C9.27311 10.0417 9.55566 9.67025 9.96582 9.30566C10.3805 8.93652 10.6562 8.63802 10.793 8.41016C10.9297 8.17773 10.998 7.93392 10.998 7.67871C10.998 6.90853 10.6426 6.52344 9.93164 6.52344C9.5944 6.52344 9.32324 6.62826 9.11816 6.83789C8.91764 7.04297 8.81283 7.3278 8.80371 7.69238H6.82129C6.8304 6.82194 7.11068 6.14062 7.66211 5.64844C8.2181 5.15625 8.97461 4.91016 9.93164 4.91016C10.8978 4.91016 11.6475 5.14486 12.1807 5.61426C12.7139 6.0791 12.9805 6.73763 12.9805 7.58984C12.9805 7.97721 12.8939 8.34408 12.7207 8.69043C12.5475 9.03223 12.2445 9.41276 11.8115 9.83203L11.2578 10.3584C10.9115 10.6911 10.7132 11.0807 10.6631 11.5273L10.6357 11.9443H8.88574ZM8.6875 14.043C8.6875 13.7376 8.79004 13.487 8.99512 13.291C9.20475 13.0905 9.47135 12.9902 9.79492 12.9902C10.1185 12.9902 10.3828 13.0905 10.5879 13.291C10.7975 13.487 10.9023 13.7376 10.9023 14.043C10.9023 14.3438 10.7998 14.5921 10.5947 14.7881C10.3942 14.984 10.1276 15.082 9.79492 15.082C9.46224 15.082 9.19336 14.984 8.98828 14.7881C8.78776 14.5921 8.6875 14.3438 8.6875 14.043Z" fill="#212529"/>
</svg>
